<?xml version="1.0" standalone="no"?>
<!DOCTYPE svg PUBLIC "-//W3C//DTD SVG 20010904//EN"
 "http://www.w3.org/TR/2001/REC-SVG-20010904/DTD/svg10.dtd">
<svg version="1.0" xmlns="http://www.w3.org/2000/svg"
 width="512.000000pt" height="512.000000pt" viewBox="0 0 512.000000 512.000000"
 preserveAspectRatio="xMidYMid meet">

<g transform="translate(0.000000,512.000000) scale(0.100000,-0.100000)"
fill="#000000" stroke="none">
<path d="M2630 5069 c-118 -15 -290 -99 -449 -220 -52 -39 -97 -66 -105 -63
-8 3 -17 1 -21 -5 -3 -7 2 -11 14 -11 11 0 30 -4 43 -10 85 -36 373 -133 418
-141 30 -6 122 -33 203 -60 82 -28 156 -48 164 -44 30 11 -1 318 -43 425 -44
113 -98 144 -224 129z"/>
<path d="M768 4997 c-108 -46 -207 -135 -302 -274 -47 -69 -49 -71 -134 -103
-105 -40 -209 -90 -279 -137 l-53 -35 0 -723 0 -724 55 -60 56 -59 -7 -65 c-6
-59 -4 -69 21 -116 16 -28 43 -63 62 -76 27 -22 83 -120 75 -134 -1 -2 -18 -5
-39 -7 -40 -4 -53 -16 -53 -54 l0 -24 16 22 c19 28 36 28 87 -3 36 -20 86 -80
75 -89 -1 -2 -37 -13 -78 -26 -156 -46 -270 -127 -270 -190 0 -45 25 -39 132
30 79 51 226 120 256 120 8 0 42 -40 125 -146 l18 -23 -63 -32 c-35 -17 -93
-51 -129 -75 -76 -50 -196 -172 -205 -208 -9 -38 -1 -61 25 -64 18 -3 47 20
135 106 114 112 210 189 265 211 29 13 32 12 82 -33 69 -62 172 -129 287 -187
108 -54 122 -58 122 -29 0 27 -21 70 -35 70 -20 0 -163 100 -214 149 -76 74
-104 137 -109 246 -4 92 -3 96 55 263 18 51 19 52 41 36 33 -23 27 -10 -22 45
-49 55 -94 160 -126 294 -28 114 -26 135 8 148 19 8 38 7 66 -1 22 -7 62 -12
90 -12 44 1 55 5 80 33 35 40 32 75 -19 180 -29 61 -35 85 -35 140 0 36 3 68
6 71 3 4 21 0 39 -8 45 -19 129 -18 166 1 35 18 52 57 44 96 -5 22 -2 29 14
34 15 5 31 -5 63 -39 55 -57 112 -69 179 -37 24 11 33 18 20 15 -86 -22 -183
8 -189 58 -4 29 -2 30 293 114 l128 37 171 -56 c209 -68 280 -81 405 -74 117
6 200 34 361 121 25 13 69 26 98 29 l52 6 0 -47 c0 -54 42 -150 85 -195 60
-63 141 -97 265 -113 30 -3 67 -12 81 -20 33 -17 77 -68 85 -99 8 -34 -23 -94
-53 -101 -35 -9 -50 9 -35 41 17 36 15 41 -8 20 -27 -25 -25 -61 4 -80 22 -14
28 -14 60 -1 19 8 45 30 56 48 l21 33 -6 -110 c-3 -60 -8 -141 -11 -179 -3
-42 -2 -66 4 -62 5 3 12 -7 15 -22 8 -38 42 -79 73 -86 43 -11 78 11 119 75
21 33 42 58 47 57 8 -3 48 -101 48 -118 0 -3 -29 -13 -65 -22 -36 -10 -87 -27
-114 -39 -46 -19 -49 -22 -39 -44 10 -23 12 -23 39 -10 37 20 145 45 189 45
31 -1 39 -7 69 -50 46 -68 154 -169 232 -215 35 -21 66 -40 68 -41 2 -2 -4
-22 -13 -46 l-17 -44 -75 -12 c-50 -8 -99 -24 -145 -48 -104 -55 -115 -82
-129 -327 -11 -183 -19 -222 -86 -394 -71 -181 -72 -275 -3 -344 l40 -40 -20
-55 c-12 -30 -21 -63 -21 -74 0 -28 46 -59 101 -66 l48 -6 -16 -42 c-9 -22
-22 -50 -30 -61 -15 -23 -17 -108 -3 -136 14 -24 36 -24 50 0 5 11 10 69 10
130 0 84 3 111 13 111 21 0 60 -263 58 -396 -3 -212 -59 -332 -162 -347 -19
-3 4 -4 51 -2 150 5 273 68 425 220 216 216 398 569 449 874 21 123 21 343 0
452 -48 255 -170 447 -322 508 -39 16 -44 23 -37 54 6 23 7 23 163 23 149 0
162 2 250 31 165 55 310 162 407 298 45 64 89 144 82 151 -2 2 -17 -15 -34
-39 -165 -229 -465 -361 -742 -328 -398 49 -699 363 -719 751 -4 80 -9 111
-23 131 -17 25 -18 28 -2 40 29 24 45 77 37 125 -6 40 -4 45 17 53 l24 10 -25
0 c-34 1 -44 -7 -69 -57 -19 -36 -26 -43 -48 -40 -46 5 -50 29 -16 100 39 81
57 157 50 216 -5 44 -3 50 30 84 23 23 33 42 30 52 -17 43 -146 83 -352 108
-140 17 -649 17 -805 0 -598 -64 -1124 -198 -1481 -377 -147 -74 -243 -139
-342 -234 -72 -67 -78 -72 -58 -37 56 97 185 215 326 299 301 177 1049 364
1633 408 229 17 631 7 816 -20 143 -21 149 -21 168 -4 22 20 48 65 48 84 0 8
-6 7 -17 -4 -38 -34 -107 -40 -342 -34 -124 4 -266 12 -316 18 -49 7 -109 11
-132 10 -24 -1 -43 0 -43 2 0 3 7 22 16 42 24 59 5 113 -69 192 -71 76 -155
128 -304 189 -59 24 -101 44 -93 44 13 0 13 1 0 10 -8 6 -28 7 -44 4 -21 -5
-26 -3 -21 6 5 9 2 10 -14 5 -15 -4 -23 -1 -27 10 -4 11 -14 15 -27 11 -11 -2
-30 2 -43 10 -13 9 -28 13 -34 9 -5 -3 -10 -1 -10 6 0 6 -8 9 -18 7 -10 -3
-27 1 -36 8 -10 7 -24 10 -32 7 -8 -3 -14 0 -14 7 0 7 -8 9 -20 5 -12 -4 -20
-2 -20 5 0 7 -7 10 -15 6 -8 -3 -28 0 -46 6 -23 8 -28 13 -17 20 8 5 2 6 -16
2 -22 -5 -27 -4 -21 6 5 9 4 11 -3 6 -7 -4 -20 -2 -29 3 -14 8 -15 10 -3 11
13 0 13 1 0 10 -9 5 -17 5 -20 -1 -4 -5 -13 -4 -24 4 -14 10 3 13 101 13 65 1
154 2 198 4 l80 3 -65 8 c-36 4 -122 9 -192 11 -77 1 -124 6 -121 12 4 5 -1 7
-10 3 -33 -12 -113 -18 -142 -9 -19 5 -31 17 -35 33 -4 16 -8 20 -14 11 -4 -6
-16 -12 -28 -12 -16 0 -18 -3 -9 -14 16 -19 -13 -30 -40 -16 -13 7 -19 7 -19
0 0 -5 -22 -10 -50 -10 -27 0 -50 4 -50 8 0 5 -12 7 -28 4 -22 -3 -42 9 -106
62 -134 112 -196 131 -288 93z m465 -189 c3 -10 8 -10 21 1 15 13 19 13 27 0
6 -10 9 -10 9 -1 0 6 6 12 14 12 8 0 17 -6 19 -12 4 -10 8 -10 15 1 6 9 15 10
23 5 8 -5 29 -9 46 -9 18 0 34 -4 35 -10 1 -5 -20 -27 -47 -47 -35 -27 -52
-34 -57 -25 -7 11 -12 3 -9 -15 0 -3 -22 -23 -49 -42 -33 -24 -46 -30 -38 -17
7 11 20 22 29 24 29 8 10 61 -23 65 -14 2 -38 16 -54 33 -27 28 -27 29 -6 29
12 0 22 5 22 10 0 14 18 12 23 -2z m283 -9 c5 -8 8 -8 14 0 4 8 26 0 66 -24
34 -21 121 -55 204 -81 524 -164 682 -243 772 -383 31 -50 35 -88 13 -131 -16
-31 -35 -40 -35 -17 0 8 -2 9 -8 1 -9 -15 -77 -34 -122 -34 -47 0 -600 -92
-754 -126 -260 -56 -660 -173 -785 -230 -41 -19 -81 -32 -88 -29 -8 2 -16 -2
-19 -10 -12 -29 -43 -16 -65 27 -61 120 -20 280 120 464 69 92 216 238 230
230 5 -4 13 -1 17 5 5 8 3 9 -7 4 -8 -4 -1 6 16 24 16 17 35 29 43 26 7 -2 11
-1 8 4 -8 12 19 33 28 23 4 -4 6 0 4 8 -2 9 4 15 14 15 10 0 23 7 30 15 11 12
10 12 -7 0 -20 -15 -20 -15 -1 8 11 12 26 20 33 17 8 -2 12 -1 9 4 -3 5 1 15
10 22 11 9 18 10 22 2 5 -8 13 -7 27 4 20 15 20 15 -2 8 -13 -3 -23 -4 -23 -1
0 2 35 29 78 60 44 30 85 62 92 70 7 9 16 13 21 10 5 -3 12 2 15 10 7 19 20
21 30 5z m-679 -537 c-35 -43 -77 -102 -94 -132 -85 -149 -97 -307 -31 -402
22 -32 23 -39 3 -32 -8 4 -15 1 -15 -5 0 -5 -26 -28 -57 -49 -83 -56 -135
-111 -178 -183 -45 -78 -83 -119 -101 -112 -8 3 -14 0 -14 -6 0 -6 6 -11 12
-11 7 0 -9 -16 -36 -35 -27 -19 -57 -35 -66 -35 -23 0 -39 40 -49 119 -5 41
-21 91 -40 128 -72 143 -95 246 -71 319 16 49 108 182 155 223 67 58 79 64
122 51 32 -10 53 -8 128 9 90 22 139 45 228 108 26 18 52 31 58 28 5 -4 8 -1
7 6 -2 7 2 13 7 14 6 0 28 17 49 38 22 20 41 37 42 37 2 0 -25 -35 -59 -78z
m2137 -599 c28 -14 78 -29 111 -33 l60 -7 -56 -2 c-73 -1 -176 47 -219 104 -9
12 -2 9 19 -8 19 -16 57 -40 85 -54z m126 7 c20 -6 21 -8 5 -8 -11 0 -33 4
-50 8 -27 7 -27 8 -5 8 14 0 36 -4 50 -8z m75 -30 c-3 -5 -12 -10 -18 -10 -7
0 -6 4 3 10 19 12 23 12 15 0z m-2131 -106 c3 -8 2 -12 -4 -9 -6 3 -10 10 -10
16 0 14 7 11 14 -7z m2109 -86 c14 -24 39 -52 56 -63 23 -15 31 -28 31 -49 0
-27 -1 -26 -32 20 -18 27 -52 63 -75 80 -30 23 -38 35 -30 43 17 17 23 14 50
-31z m207 -32 c8 -3 -1 -4 -20 -1 -19 3 -42 12 -50 21 -15 15 -6 13 70 -20z
m-2657 -170 c23 -53 14 -58 -13 -7 -24 49 -44 146 -34 163 5 7 13 -15 19 -52
6 -36 19 -83 28 -104z m64 112 c-3 -8 -6 -5 -6 6 -1 11 2 17 5 13 3 -3 4 -12
1 -19z m52 -148 c8 -14 25 -37 39 -52 14 -16 21 -28 15 -28 -31 0 -104 137
-102 193 0 12 8 -3 18 -33 9 -30 23 -66 30 -80z m2641 109 c6 -11 9 -25 6 -32
-2 -7 -5 -5 -5 5 -1 9 -8 24 -17 32 -8 9 -11 16 -5 16 6 0 15 -9 21 -21z m-30
-146 c-11 -17 -11 -17 -6 0 3 10 7 28 7 40 2 22 2 22 6 0 2 -12 -1 -30 -7 -40z
m38 -258 c-7 -5 -30 -31 -51 -57 -43 -54 -72 -62 -87 -22 -26 66 -4 129 76
217 l49 54 13 -91 c11 -75 11 -92 0 -101z m575 -477 c28 -22 7 -40 -31 -27
-26 9 -30 14 -21 25 14 17 30 18 52 2z"/>
<path d="M1440 4749 c0 -5 5 -7 10 -4 6 3 10 8 10 11 0 2 -4 4 -10 4 -5 0 -10
-5 -10 -11z"/>
<path d="M1590 4751 c0 -10 30 -24 37 -17 3 2 -5 9 -16 16 -12 6 -21 7 -21 1z"/>
<path d="M1410 4719 c0 -5 5 -7 10 -4 6 3 10 8 10 11 0 2 -4 4 -10 4 -5 0 -10
-5 -10 -11z"/>
<path d="M1655 4720 c3 -5 8 -10 11 -10 2 0 4 5 4 10 0 6 -5 10 -11 10 -5 0
-7 -4 -4 -10z"/>
<path d="M1370 4689 c0 -5 5 -7 10 -4 6 3 10 8 10 11 0 2 -4 4 -10 4 -5 0 -10
-5 -10 -11z"/>
<path d="M1770 4680 c0 -5 5 -10 11 -10 5 0 7 5 4 10 -3 6 -8 10 -11 10 -2 0
-4 -4 -4 -10z"/>
<path d="M1860 4656 c0 -2 7 -6 15 -10 8 -3 15 -1 15 4 0 6 -7 10 -15 10 -8 0
-15 -2 -15 -4z"/>
<path d="M1910 4639 c0 -5 9 -9 20 -9 11 0 20 2 20 4 0 2 -9 6 -20 9 -11 3
-20 1 -20 -4z"/>
<path d="M2068 4583 c7 -3 16 -2 19 1 4 3 -2 6 -13 5 -11 0 -14 -3 -6 -6z"/>
<path d="M2190 4540 c0 -9 39 -25 46 -18 2 3 -7 10 -21 16 -14 6 -25 7 -25 2z"/>
<path d="M2275 4500 c3 -5 8 -10 11 -10 2 0 4 5 4 10 0 6 -5 10 -11 10 -5 0
-7 -4 -4 -10z"/>
<path d="M2310 4480 c0 -5 5 -10 11 -10 5 0 7 5 4 10 -3 6 -8 10 -11 10 -2 0
-4 -4 -4 -10z"/>
<path d="M1029 4423 c-13 -16 -12 -17 4 -4 9 7 17 15 17 17 0 8 -8 3 -21 -13z"/>
<path d="M2390 4430 c0 -5 5 -10 11 -10 5 0 7 5 4 10 -3 6 -8 10 -11 10 -2 0
-4 -4 -4 -10z"/>
<path d="M2430 4402 c0 -12 19 -26 26 -19 2 2 -2 10 -11 17 -9 8 -15 8 -15 2z"/>
<path d="M2470 4366 c0 -2 8 -10 18 -17 15 -13 16 -12 3 4 -13 16 -21 21 -21
13z"/>
<path d="M957 4353 c-4 -3 -7 -11 -7 -17 0 -6 5 -5 12 2 6 6 9 14 7 17 -3 3
-9 2 -12 -2z"/>
<path d="M927 4323 c-4 -3 -7 -11 -7 -17 0 -6 5 -5 12 2 6 6 9 14 7 17 -3 3
-9 2 -12 -2z"/>
<path d="M2510 4321 c0 -6 4 -13 10 -16 6 -3 7 1 4 9 -7 18 -14 21 -14 7z"/>
<path d="M2531 4283 c0 -4 4 -17 9 -28 8 -19 9 -19 9 2 1 12 -3 25 -9 28 -5 3
-10 3 -9 -2z"/>
<path d="M864 4245 c-24 -37 -12 -40 15 -5 12 17 17 30 12 30 -6 0 -18 -11
-27 -25z"/>
<path d="M2540 4204 c0 -8 5 -12 10 -9 6 4 8 11 5 16 -9 14 -15 11 -15 -7z"/>
<path d="M827 4193 c-4 -3 -7 -11 -7 -17 0 -6 5 -5 12 2 6 6 9 14 7 17 -3 3
-9 2 -12 -2z"/>
<path d="M795 4140 c-3 -5 -1 -10 4 -10 6 0 11 5 11 10 0 6 -2 10 -4 10 -3 0
-8 -4 -11 -10z"/>
<path d="M760 4055 c0 -8 2 -15 4 -15 2 0 6 7 10 15 3 8 1 15 -4 15 -6 0 -10
-7 -10 -15z"/>
<path d="M731 3944 c0 -11 3 -14 6 -6 3 7 2 16 -1 19 -3 4 -6 -2 -5 -13z"/>
<path d="M741 3814 c0 -11 3 -14 6 -6 3 7 2 16 -1 19 -3 4 -6 -2 -5 -13z"/>
<path d="M757 4213 c-4 -3 -7 -11 -7 -17 0 -6 5 -5 12 2 6 6 9 14 7 17 -3 3
-9 2 -12 -2z"/>
<path d="M720 4159 c0 -5 5 -7 10 -4 6 3 10 8 10 11 0 2 -4 4 -10 4 -5 0 -10
-5 -10 -11z"/>
<path d="M686 4104 c-10 -25 1 -29 14 -5 6 12 7 21 1 21 -5 0 -12 -7 -15 -16z"/>
<path d="M632 3920 c0 -14 2 -19 5 -12 2 6 2 18 0 25 -3 6 -5 1 -5 -13z"/>
<path d="M641 3784 c0 -11 3 -14 6 -6 3 7 2 16 -1 19 -3 4 -6 -2 -5 -13z"/>
<path d="M310 3320 c0 -5 4 -10 9 -10 6 0 13 5 16 10 3 6 -1 10 -9 10 -9 0
-16 -4 -16 -10z"/>
<path d="M264 3296 c-10 -8 -17 -17 -14 -19 3 -3 16 3 30 13 29 22 14 27 -16
6z"/>
<path d="M1218 4843 c7 -3 16 -2 19 1 4 3 -2 6 -13 5 -11 0 -14 -3 -6 -6z"/>
<path d="M1838 4793 c7 -3 16 -2 19 1 4 3 -2 6 -13 5 -11 0 -14 -3 -6 -6z"/>
<path d="M1915 4790 c3 -5 8 -10 11 -10 2 0 4 5 4 10 0 6 -5 10 -11 10 -5 0
-7 -4 -4 -10z"/>
<path d="M1958 4783 c7 -3 16 -2 19 1 4 3 -2 6 -13 5 -11 0 -14 -3 -6 -6z"/>
<path d="M2005 4780 c4 -6 11 -8 16 -5 14 9 11 15 -7 15 -8 0 -12 -5 -9 -10z"/>
<path d="M2185 4600 c3 -5 11 -10 16 -10 6 0 7 5 4 10 -3 6 -11 10 -16 10 -6
0 -7 -4 -4 -10z"/>
<path d="M2250 4580 c20 -13 33 -13 25 0 -3 6 -14 10 -23 10 -15 0 -15 -2 -2
-10z"/>
<path d="M2310 4560 c20 -13 33 -13 25 0 -3 6 -14 10 -23 10 -15 0 -15 -2 -2
-10z"/>
<path d="M2365 4540 c3 -5 8 -10 11 -10 2 0 4 5 4 10 0 6 -5 10 -11 10 -5 0
-7 -4 -4 -10z"/>
<path d="M2410 4520 c0 -5 5 -10 11 -10 5 0 7 5 4 10 -3 6 -8 10 -11 10 -2 0
-4 -4 -4 -10z"/>
<path d="M2474 4485 c11 -8 22 -12 25 -9 6 6 -19 24 -34 24 -5 -1 -1 -7 9 -15z"/>
<path d="M2520 4461 c0 -10 30 -24 37 -17 3 2 -5 9 -16 16 -12 6 -21 7 -21 1z"/>
<path d="M2620 4377 c0 -5 9 -20 20 -34 11 -14 20 -21 20 -15 0 12 -39 60 -40
49z"/>
<path d="M2682 4235 c0 -16 2 -22 5 -12 2 9 2 23 0 30 -3 6 -5 -1 -5 -18z"/>
<path d="M4115 3975 c-33 -9 -103 -36 -155 -62 -79 -39 -109 -61 -180 -133
-77 -77 -137 -160 -156 -215 -4 -11 6 -2 23 20 68 92 182 184 282 229 283 127
617 69 831 -145 149 -149 230 -365 217 -574 l-5 -80 21 60 c16 49 20 85 20
195 0 118 -3 145 -25 212 -39 119 -92 204 -182 294 -91 90 -173 143 -285 181
-65 23 -96 27 -211 29 -95 3 -153 -1 -195 -11z"/>
<path d="M1469 3405 c-135 -33 -251 -117 -307 -222 -29 -56 -44 -102 -57 -188
-6 -32 -8 -36 -16 -22 -6 10 -14 15 -19 12 -5 -3 -11 -1 -15 5 -10 17 -35 11
-60 -15 -34 -33 -35 -97 -3 -120 23 -16 40 -3 21 16 -5 5 -7 26 -4 47 5 31 11
38 34 40 19 2 27 -1 27 -12 0 -8 2 -21 5 -28 3 -8 -3 -25 -15 -38 -11 -13 -20
-27 -20 -32 0 -13 40 11 47 28 9 24 23 15 23 -15 0 -49 38 -153 75 -208 61
-90 188 -169 304 -188 l43 -7 -35 -29 c-47 -39 -67 -85 -67 -157 0 -64 16 -97
86 -174 44 -50 61 -111 39 -144 -36 -56 -105 -54 -156 3 -30 35 -59 90 -59
113 0 17 26 11 55 -12 17 -13 26 -16 23 -8 -7 23 -55 53 -84 53 -18 -1 -36
-10 -52 -29 -32 -37 -26 -95 17 -162 93 -146 213 -199 357 -157 91 26 204 90
259 145 58 59 57 62 -29 158 -48 54 -56 68 -56 103 0 45 19 98 42 117 13 11
27 9 80 -9 178 -60 411 -11 555 116 60 52 89 56 112 13 21 -37 3 -100 -54
-189 -87 -135 -89 -147 -29 -188 85 -58 245 -80 320 -45 96 46 174 156 174
247 0 93 -40 114 -100 52 -40 -41 -33 -61 8 -22 22 21 31 24 40 15 20 -20 14
-88 -13 -133 -55 -95 -144 -103 -196 -18 -26 41 -20 81 17 130 29 38 118 93
152 93 19 0 22 5 22 38 -1 110 -60 265 -110 284 -37 14 -168 0 -261 -28 -12
-3 -8 11 15 58 26 52 32 76 35 151 3 90 -13 161 -43 186 -10 9 -13 -1 -12 -48
1 -62 -13 -91 -45 -91 -24 0 -49 49 -49 96 0 32 -2 35 -16 23 -44 -37 -80
-162 -70 -250 6 -63 36 -132 62 -147 13 -7 6 -15 -40 -41 -31 -18 -81 -53
-111 -77 l-55 -45 -144 35 c-79 20 -158 36 -175 36 -17 0 -31 2 -31 5 0 3 18
23 41 46 86 86 128 236 109 396 -11 96 -19 133 -31 133 -5 0 -9 6 -9 13 0 6
-11 34 -25 61 -13 27 -22 53 -20 57 9 13 -83 105 -132 132 -99 53 -254 71
-374 42z m281 -86 c82 -38 127 -83 170 -174 41 -87 53 -156 48 -276 -3 -79 -9
-116 -26 -153 -34 -76 -85 -131 -150 -163 -52 -26 -67 -28 -167 -28 -106 0
-113 1 -186 36 -167 80 -229 182 -229 380 0 185 80 325 217 380 117 48 217 47
323 -2z m85 31 c3 -6 -1 -7 -9 -4 -18 7 -21 14 -7 14 6 0 13 -4 16 -10z m123
-101 c22 -31 9 -22 -38 28 -38 39 -39 42 -10 18 19 -15 41 -36 48 -46z"/>
<path d="M1492 3018 c-20 -26 -39 -74 -46 -113 l-6 -40 59 65 c60 65 60 65 40
83 -25 20 -33 21 -47 5z"/>
<path d="M1695 2911 c-10 -17 12 -21 25 -6 10 12 10 15 -3 15 -9 0 -18 -4 -22
-9z"/>
<path d="M1665 2765 c-114 -141 -110 -136 -94 -146 8 -5 33 -9 56 -9 79 0 127
78 121 194 l-3 60 -80 -99z"/>
<path d="M1556 2749 c-44 -53 -56 -73 -47 -82 13 -13 8 -17 79 74 45 58 54 79
33 79 -3 0 -33 -32 -65 -71z"/>
<path d="M3383 2523 c-27 -3 -33 -9 -33 -29 0 -23 3 -24 61 -24 63 0 227 -30
295 -53 48 -17 64 -12 64 19 0 29 -35 49 -122 68 -69 16 -214 26 -265 19z"/>
<path d="M2247 2067 c-60 -29 -106 -55 -101 -59 4 -5 50 -8 103 -8 145 0 207
41 147 96 -14 13 -29 24 -33 24 -4 -1 -57 -24 -116 -53z"/>
<path d="M1061 1812 c5 -15 12 -35 15 -45 7 -19 116 -55 246 -81 131 -27 356
-38 523 -27 83 5 154 6 158 2 5 -5 2 -15 -5 -22 -8 -8 -18 -23 -22 -34 -8 -18
-9 -19 -15 -2 -6 15 -21 8 -116 -56 -209 -140 -230 -155 -285 -211 -59 -61
-54 -67 26 -40 25 8 48 13 51 11 3 -3 33 7 68 22 73 31 164 110 194 168 11 22
27 45 36 53 33 27 7 -42 -30 -80 -19 -20 -35 -41 -35 -47 0 -6 -14 -22 -30
-35 -17 -13 -46 -35 -64 -51 -19 -15 -55 -31 -82 -36 -27 -6 -67 -16 -89 -23
-22 -8 -57 -13 -77 -11 -32 2 -38 -1 -38 -18 0 -13 -27 -36 -91 -77 -379 -239
-613 -408 -738 -532 -186 -184 -205 -375 -58 -592 l32 -47 1118 -1 1117 0 -4
22 c-3 13 -10 59 -16 103 -16 115 -60 318 -71 330 -5 5 -9 17 -9 27 0 10 -7
18 -15 18 -8 0 -15 5 -15 11 0 8 -12 9 -37 5 -21 -3 -137 -11 -258 -16 -121
-5 -274 -17 -340 -25 -179 -22 -177 -23 -115 27 l53 42 291 22 c160 13 349 28
420 35 123 12 129 11 139 -7 33 -61 139 -124 181 -108 52 20 14 97 -96 194
-46 41 -85 83 -86 94 -3 14 20 -2 75 -54 128 -122 194 -159 286 -160 92 0 163
47 203 138 31 67 30 73 -6 59 -61 -23 -173 33 -410 207 l-145 106 -3 -50 c-3
-45 -5 -50 -27 -50 -16 0 -30 11 -44 34 -39 62 -129 106 -219 106 -87 0 -201
-89 -254 -200 -30 -62 -36 -153 -13 -197 22 -41 99 -91 156 -102 43 -9 43 -9
9 -10 -40 -1 -114 30 -149 62 -44 41 -71 114 -71 195 0 65 -2 73 -17 68 -10
-2 -58 -8 -108 -12 -107 -8 -126 -14 -181 -60 -47 -38 -47 -38 -59 41 -5 37
-3 41 25 57 17 9 34 27 40 40 21 51 54 77 109 88 30 5 69 10 87 10 34 0 35 2
49 65 8 36 76 89 132 104 21 5 67 11 103 13 l65 3 30 -61 c27 -56 33 -62 68
-67 20 -3 72 -3 116 0 l78 6 -29 57 c-55 107 -417 436 -471 429 -26 -3 -35 2
-40 21 -9 35 31 65 114 89 42 11 117 37 165 56 49 20 78 33 64 29 -14 -4 -115
-8 -225 -9 -222 -2 -186 5 -462 -97 -84 -31 -94 -33 -223 -32 -74 0 -171 6
-215 13 -102 16 -288 64 -351 92 -96 42 -93 41 -83 11z m1677 -608 c35 -10 21
-28 -26 -35 -45 -6 -65 12 -34 30 20 12 29 13 60 5z m-638 -60 c0 -33 2 -36
25 -32 14 3 28 2 30 -2 3 -4 -18 -10 -45 -14 -28 -4 -58 -9 -68 -12 -13 -5
-14 -4 -3 4 11 8 10 14 -5 37 -17 27 -17 28 1 41 10 8 29 14 42 14 20 0 23 -5
23 -36z m-245 -6 c-66 -295 -92 -434 -83 -445 15 -19 -20 -211 -43 -232 -18
-17 -79 -233 -79 -280 0 -15 6 -33 13 -41 13 -15 -2 -4 -154 115 -92 71 -253
175 -271 175 -17 0 -7 23 44 98 78 117 173 244 287 382 79 96 108 125 127 125
16 0 42 20 82 63 61 65 86 78 77 40z m835 -166 c0 -66 -118 -243 -153 -229 -9
3 -23 17 -32 31 -16 24 -15 26 30 82 26 31 56 76 68 100 18 39 25 44 54 44 30
0 33 -3 33 -28z m70 -45 c0 -36 -131 -217 -157 -217 -8 0 7 25 37 62 27 35 62
86 78 115 26 52 42 66 42 40z m-542 -128 c2 -13 10 -32 18 -43 26 -38 -25 -78
-55 -42 -7 8 -9 26 -6 40 3 14 7 38 10 52 7 31 29 27 33 -7z"/>
<path d="M2433 1222 c-26 -4 -47 -27 -38 -42 7 -11 44 -13 69 -4 35 13 9 53
-31 46z"/>
<path d="M2300 1113 c0 -13 5 -23 10 -23 13 0 13 11 0 30 -8 12 -10 11 -10 -7z"/>
<path d="M2730 563 c1 -13 27 -43 37 -43 6 0 16 6 22 14 9 11 9 16 0 22 -7 4
-9 3 -5 -4 10 -17 -13 -25 -30 -11 -14 12 -14 14 3 20 16 7 15 8 -4 8 -13 1
-23 -2 -23 -6z"/>
<path d="M2870 566 c0 -2 8 -10 18 -17 15 -13 16 -12 3 4 -13 16 -21 21 -21
13z"/>
<path d="M2700 556 c0 -2 8 -10 18 -17 15 -13 16 -12 3 4 -13 16 -21 21 -21
13z"/>
<path d="M3328 533 c-34 -5 -78 -56 -78 -89 0 -14 9 -42 20 -63 54 -107 189
-143 262 -71 52 52 32 147 -43 202 -26 19 -109 30 -161 21z"/>
</g>
</svg>
