<?xml version="1.0" standalone="no"?>
<!DOCTYPE svg PUBLIC "-//W3C//DTD SVG 20010904//EN"
 "http://www.w3.org/TR/2001/REC-SVG-20010904/DTD/svg10.dtd">
<svg version="1.0" xmlns="http://www.w3.org/2000/svg"
 width="500.000000pt" height="500.000000pt" viewBox="0 0 500.000000 500.000000"
 preserveAspectRatio="xMidYMid meet">

<g transform="translate(0.000000,500.000000) scale(0.100000,-0.100000)"
fill="#000000" stroke="none">
<path d="M2820 4528 c-57 -10 -170 -66 -238 -118 -29 -22 -60 -40 -70 -40 -9
0 53 -23 138 -51 85 -28 194 -64 242 -79 47 -16 89 -26 92 -23 9 10 7 91 -4
162 -9 51 -42 141 -53 141 -1 0 -16 4 -32 8 -17 5 -50 5 -75 0z"/>
<path d="M1750 4474 c-60 -34 -75 -48 -127 -118 -38 -52 -53 -63 -114 -88 -98
-39 -171 -89 -217 -146 -38 -49 -39 -52 -46 -155 -7 -113 11 -278 39 -358 8
-23 15 -65 15 -93 0 -29 4 -56 8 -61 5 -6 14 -28 20 -50 6 -22 26 -58 44 -79
26 -32 31 -46 29 -82 -2 -36 3 -48 32 -81 31 -35 57 -74 57 -87 0 -2 -10 -6
-22 -8 -13 -2 -24 -11 -27 -23 -3 -17 -1 -18 13 -6 14 11 21 10 51 -13 19 -15
35 -31 35 -36 0 -4 -28 -18 -63 -29 -71 -24 -137 -73 -137 -102 0 -27 13 -24
74 16 29 20 75 44 103 55 l50 19 38 -50 c21 -27 36 -51 34 -52 -2 -2 -26 -14
-53 -28 -72 -36 -166 -128 -166 -162 0 -15 6 -27 13 -27 7 0 42 29 77 65 36
36 86 80 112 96 l48 31 62 -47 c65 -49 196 -120 205 -111 12 12 -11 43 -48 64
-98 56 -158 137 -159 214 0 55 40 170 57 164 11 -4 11 -1 3 14 -6 11 -14 20
-19 20 -17 0 -81 180 -81 226 0 17 37 24 71 12 39 -13 77 -3 90 26 9 18 5 35
-16 85 -28 68 -31 129 -5 123 87 -20 130 -4 130 48 0 38 11 38 48 0 31 -30 65
-38 92 -20 11 7 4 10 -26 10 -28 0 -47 6 -59 20 -10 11 -16 22 -14 24 2 3 57
21 123 40 l118 36 107 -34 c183 -59 262 -56 400 14 84 42 107 40 115 -8 13
-85 85 -145 186 -158 91 -11 133 -72 85 -123 -18 -19 -37 -4 -29 22 5 17 3 19
-6 11 -17 -16 -8 -48 14 -52 10 -2 29 7 43 20 l25 23 -6 -95 c-6 -85 -5 -98
13 -127 34 -54 69 -44 118 33 10 17 12 16 23 -13 6 -18 12 -36 11 -39 0 -4
-27 -16 -60 -26 -41 -13 -61 -24 -61 -34 0 -11 5 -14 18 -9 9 4 41 12 69 18
l52 11 57 -62 c31 -34 76 -74 100 -88 50 -29 48 -25 32 -59 -7 -15 -19 -25
-32 -25 -41 0 -97 -22 -127 -48 -30 -27 -31 -32 -44 -162 -10 -108 -19 -151
-44 -213 -39 -96 -42 -169 -9 -204 19 -21 20 -26 9 -64 -16 -51 -3 -68 57 -76
l41 -5 12 -72 c15 -80 14 -201 -2 -260 -6 -21 -21 -49 -34 -62 l-24 -24 24 0
c14 0 48 9 76 19 187 71 375 365 410 643 27 210 -45 425 -164 488 -75 40 -61
54 63 61 70 4 122 13 157 26 93 37 183 116 226 199 13 25 3 18 -46 -31 -280
-279 -756 -100 -781 293 -3 35 -8 67 -12 70 -4 4 -4 1 1 -7 5 -9 4 -12 -3 -7
-11 7 -7 31 11 53 12 16 16 93 5 93 -5 0 -14 -11 -20 -25 -11 -24 -41 -34 -52
-17 -3 5 4 28 16 52 13 25 22 65 23 97 1 36 8 60 20 73 16 18 17 23 4 35 -37
38 -316 71 -499 60 -486 -29 -924 -153 -1140 -321 -65 -52 -72 -55 -51 -26 32
45 123 116 196 154 154 79 507 171 780 203 158 18 447 19 570 0 86 -12 91 -12
108 7 25 30 21 38 -15 26 -31 -11 -314 -5 -404 8 -41 6 -41 7 -31 34 9 24 7
34 -16 69 -30 46 -82 87 -145 115 -23 10 -39 23 -35 28 3 6 -3 7 -17 3 -17 -5
-21 -4 -15 6 6 9 3 10 -10 5 -10 -4 -21 -3 -24 1 -5 7 -129 50 -165 58 -6 1
-28 5 -48 10 -21 4 -38 11 -38 17 0 5 -4 7 -8 4 -12 -7 -36 10 -29 21 3 5 26
8 51 8 25 -1 46 2 46 7 0 8 -87 12 -178 8 -29 -1 -44 3 -48 13 -3 9 -13 13
-25 10 -10 -3 -17 -9 -14 -13 3 -4 -23 -7 -58 -6 -57 1 -67 5 -126 49 -74 55
-105 59 -171 21z m393 -93 c10 0 15 -6 12 -11 -4 -6 -11 -7 -17 -4 -7 4 -8 2
-4 -4 4 -7 1 -12 -8 -12 -9 0 -16 -5 -16 -11 0 -5 -4 -8 -9 -5 -5 4 -12 0 -15
-6 -3 -9 -8 -8 -16 5 -6 9 -17 17 -24 17 -20 0 -40 27 -24 32 11 4 65 3 121
-1z m107 -6 c-9 -11 -9 -15 -1 -15 7 0 9 -5 5 -12 -5 -8 -2 -9 9 -5 10 3 17 2
17 -3 0 -5 7 -6 17 -3 9 4 14 2 11 -3 -3 -5 8 -10 25 -10 17 -1 33 -6 35 -12
2 -6 10 -8 18 -5 8 3 14 1 14 -5 0 -6 10 -8 22 -4 15 4 19 2 13 -7 -6 -10 -2
-11 15 -6 17 5 21 4 15 -6 -6 -9 -3 -11 8 -6 23 9 141 -34 124 -45 -7 -5 1 -6
17 -2 22 5 27 4 21 -6 -5 -9 -4 -11 4 -6 26 16 152 -80 172 -131 10 -27 -3
-69 -23 -71 -70 -6 -432 -66 -526 -88 -124 -28 -315 -85 -405 -119 -49 -19
-93 -35 -98 -35 -16 0 -32 77 -25 122 7 47 56 144 72 141 5 -1 10 7 10 17 0
31 -22 5 -61 -72 -39 -80 -45 -139 -19 -191 16 -30 16 -32 -7 -47 -47 -30
-109 -93 -134 -136 -14 -24 -33 -44 -41 -44 -8 0 -13 -4 -9 -10 8 -13 -39 -42
-58 -34 -10 3 -19 24 -23 52 -4 26 -20 74 -35 107 -40 84 -40 146 2 209 50 75
84 97 156 100 47 2 77 10 121 34 33 17 63 28 68 24 4 -4 4 -2 0 5 -4 7 3 17
15 24 19 10 25 9 36 -7 7 -10 14 -13 14 -6 4 37 27 74 41 66 7 -4 8 -3 4 4 -3
6 3 16 15 23 12 6 37 25 55 43 18 17 48 44 68 60 19 17 33 33 30 37 -2 4 0 10
5 13 5 4 13 1 17 -5 5 -8 3 -9 -6 -4 -9 5 -11 4 -6 -4 5 -8 17 -2 36 20 18 18
34 28 41 23 8 -4 9 -3 5 4 -4 7 -2 12 4 12 6 0 18 7 26 15 19 19 58 21 48 3
-4 -7 2 -5 12 5 22 21 31 22 14 2z m799 -651 c14 -12 -19 -1 -35 12 -18 14
-18 14 6 3 14 -6 27 -13 29 -15z m116 -150 c8 -4 15 -12 15 -20 0 -7 -18 6
-39 29 -22 23 -37 46 -34 50 3 5 14 -5 24 -23 11 -17 26 -33 34 -36z m-1438
-46 c-3 -8 -6 -5 -6 6 -1 11 2 17 5 13 3 -3 4 -12 1 -19z m17 -34 c3 -8 2 -12
-4 -9 -6 3 -10 10 -10 16 0 14 7 11 14 -7z m87 -51 c13 -16 12 -17 -3 -4 -10
7 -18 15 -18 17 0 8 8 3 21 -13z m1456 -155 c-35 -44 -45 -46 -56 -16 -12 33
-2 63 38 110 l36 42 6 -49 c5 -45 3 -54 -24 -87z m348 -249 c10 -14 1 -21 -19
-13 -9 3 -13 10 -10 15 7 12 21 11 29 -2z"/>
<path d="M2735 4140 c10 -11 20 -20 23 -20 3 0 -3 9 -13 20 -10 11 -20 20 -23
20 -3 0 3 -9 13 -20z"/>
<path d="M1495 3530 c-3 -5 -1 -10 4 -10 6 0 11 5 11 10 0 6 -2 10 -4 10 -3 0
-8 -4 -11 -10z"/>
<path d="M2401 4386 c10 -10 59 -14 64 -5 4 5 -11 9 -31 9 -21 0 -35 -2 -33
-4z"/>
<path d="M3646 3899 c-71 -24 -129 -63 -178 -117 -61 -67 -67 -92 -9 -39 107
100 253 138 391 103 171 -44 284 -174 314 -363 l13 -78 7 60 c23 193 -104 383
-293 439 -75 22 -173 20 -245 -5z"/>
<path d="M2192 3590 c-104 -15 -188 -92 -215 -197 -10 -43 -15 -50 -29 -42
-40 22 -77 -37 -43 -69 16 -16 17 -16 11 4 -8 27 2 54 20 54 17 0 19 -41 2
-58 -9 -9 -9 -12 0 -12 6 0 15 7 20 16 7 13 11 8 16 -22 11 -55 40 -106 81
-142 38 -34 95 -62 126 -62 25 0 24 -8 -3 -38 -34 -35 -32 -111 3 -149 55 -58
64 -107 24 -125 -30 -13 -67 7 -89 51 -19 35 -10 47 17 24 16 -14 19 -15 15
-3 -7 23 -54 36 -72 20 -24 -19 -19 -62 13 -111 57 -86 138 -105 241 -58 65
30 120 74 120 96 0 9 -16 33 -35 54 -39 44 -45 84 -17 118 16 21 19 21 54 7
82 -35 230 -6 306 60 35 29 45 34 57 24 25 -21 17 -62 -25 -130 -38 -61 -39
-65 -22 -83 47 -53 163 -64 219 -21 19 15 43 40 54 58 23 38 26 104 4 113 -16
6 -55 -22 -55 -40 0 -6 8 -3 18 6 36 32 44 -18 13 -70 -25 -39 -54 -50 -86
-29 -54 36 -34 104 42 138 l46 20 -6 48 c-3 27 -16 68 -27 91 l-22 42 -66 -6
c-37 -3 -75 -8 -84 -12 -15 -6 -15 -3 3 31 22 43 25 119 7 161 l-12 28 -4 -32
c-5 -46 -26 -60 -46 -31 -9 12 -16 32 -16 43 -1 14 -6 10 -21 -18 -33 -62 -25
-173 14 -198 5 -4 -4 -14 -20 -23 -17 -8 -45 -27 -62 -42 l-32 -27 -104 24
c-97 21 -103 24 -84 37 38 26 69 110 69 185 0 70 -26 165 -55 197 -8 9 -12 19
-9 22 7 8 -54 52 -91 66 -45 16 -104 20 -163 12z m144 -49 c78 -35 124 -126
124 -240 -1 -100 -42 -173 -113 -200 -39 -15 -141 -14 -180 2 -91 39 -136 112
-137 223 0 102 35 167 109 206 64 34 136 37 197 9z m95 -18 c13 -16 12 -17 -3
-4 -17 13 -22 21 -14 21 2 0 10 -8 17 -17z"/>
<path d="M2183 3358 c-6 -7 -13 -26 -17 -43 l-6 -30 30 33 c16 18 30 37 30 42
0 14 -26 12 -37 -2z"/>
<path d="M2277 3213 c-26 -32 -47 -61 -47 -65 0 -17 60 -7 78 13 21 22 36 89
24 101 -5 5 -29 -18 -55 -49z"/>
<path d="M2224 3215 c-38 -50 -23 -55 16 -5 17 22 27 40 21 40 -5 0 -22 -16
-37 -35z"/>
<path d="M3240 3076 c0 -12 9 -16 38 -16 22 0 74 -9 117 -20 93 -24 85 -23 85
-5 0 26 -58 46 -151 52 -78 5 -89 4 -89 -11z"/>
<path d="M2618 2833 c-32 -14 -58 -29 -58 -34 0 -5 27 -9 59 -9 42 0 65 5 81
18 21 17 21 19 5 35 -20 21 -18 21 -87 -10z"/>
<path d="M1948 2677 c12 -46 164 -77 378 -77 152 0 155 0 144 -20 -6 -11 -15
-18 -20 -15 -22 14 -260 -169 -260 -200 0 -5 -44 -37 -97 -70 -248 -153 -396
-275 -437 -357 -80 -160 42 -340 345 -509 111 -62 169 -103 169 -120 0 -21
-40 -5 -117 48 -69 47 -91 57 -135 61 -44 3 -59 0 -88 -20 -19 -13 -39 -35
-44 -49 -12 -36 0 -81 22 -78 10 1 46 -26 83 -63 51 -51 80 -71 128 -88 54
-20 61 -25 55 -44 -14 -46 -42 -82 -84 -105 -24 -14 -76 -55 -115 -93 -40 -37
-75 -68 -77 -68 -3 0 -38 -32 -78 -71 l-73 -70 2 -67 c2 -80 14 -96 82 -112
61 -15 232 5 313 36 11 4 13 -5 9 -39 -6 -53 14 -80 74 -96 124 -35 269 22
395 153 100 104 122 125 130 120 5 -3 15 -1 21 5 9 7 28 5 63 -6 62 -21 350
-24 434 -5 125 29 130 31 130 57 0 14 -4 25 -8 25 -4 0 -6 15 -4 34 3 28 -1
37 -33 63 -20 17 -62 43 -93 58 -31 16 -79 49 -107 75 -71 67 -115 91 -139 78
-18 -10 -19 -8 -12 63 4 41 9 103 12 139 12 203 17 250 25 250 5 0 16 14 24
31 15 28 15 41 -4 173 -24 166 -49 253 -71 249 -8 -1 -91 -7 -185 -13 -93 -6
-190 -13 -215 -16 l-45 -5 28 24 c25 21 43 25 125 31 54 3 159 11 234 18 l136
12 42 -38 c27 -24 49 -36 63 -34 41 6 31 37 -32 100 -72 72 -82 95 -13 31 62
-58 111 -83 164 -83 50 0 82 19 103 60 19 37 19 51 0 44 -23 -9 -120 41 -216
111 -48 36 -91 65 -94 65 -3 0 -5 -11 -5 -25 0 -34 -14 -31 -55 9 -65 66 -146
58 -214 -20 -39 -44 -51 -73 -51 -124 0 -30 6 -43 31 -64 17 -14 27 -26 22
-26 -5 0 -22 13 -37 28 -30 33 -50 93 -40 124 6 20 4 21 -67 14 -46 -5 -83
-15 -100 -27 -51 -36 -54 14 -3 76 25 31 34 51 32 71 -2 20 2 29 15 32 11 2
17 -3 17 -16 0 -12 9 -22 23 -26 36 -10 47 -7 47 12 0 10 13 31 30 47 24 23
41 30 88 33 l57 4 17 -36 c18 -36 18 -36 83 -36 l65 0 -20 39 c-37 69 -232
241 -274 241 -19 0 -21 24 -3 37 6 6 46 21 87 34 l75 24 -112 3 c-106 2 -117
1 -190 -29 -138 -55 -319 -50 -497 15 -61 22 -63 22 -58 3z m489 -171 c-34
-51 -91 -96 -140 -111 -78 -23 -90 -17 -17 8 65 23 109 57 143 110 10 16 21
26 24 23 3 -3 -2 -16 -10 -30z m468 -176 c-3 -5 -15 -10 -26 -10 -10 0 -19 5
-19 10 0 6 12 10 26 10 14 0 23 -4 19 -10z m-515 -35 c0 -8 -9 -56 -20 -107
-12 -50 -22 -123 -24 -162 -3 -47 -11 -85 -24 -111 -12 -22 -27 -70 -34 -106
l-12 -66 -81 61 c-45 34 -98 70 -118 81 -20 11 -37 23 -37 26 0 28 250 341
267 335 7 -3 24 10 39 29 28 37 44 44 44 20z m475 -75 c7 -12 -26 -85 -54
-120 -19 -23 -21 -24 -36 -9 -16 15 -14 20 19 69 20 29 36 56 36 61 0 12 27
11 35 -1z m34 -52 c-20 -38 -72 -108 -77 -103 -2 2 7 18 22 36 15 17 33 44 42
60 8 16 17 29 20 29 2 0 -1 -10 -7 -22z m-292 -65 c10 -20 10 -30 1 -40 -17
-21 -38 5 -31 40 7 34 15 34 30 0z"/>
<path d="M2700 2334 c0 -10 7 -14 22 -12 32 5 35 28 4 28 -17 0 -26 -5 -26
-16z"/>
<path d="M2518 2273 c6 -2 18 -2 25 0 6 3 1 5 -13 5 -14 0 -19 -2 -12 -5z"/>
<path d="M3356 2152 c-20 -44 -16 -92 9 -92 19 0 29 57 18 100 l-9 33 -18 -41z"/>
<path d="M3203 1948 c-31 -41 -11 -97 44 -123 61 -29 113 -5 113 54 0 55 -32
81 -97 81 -29 0 -55 -5 -60 -12z"/>
</g>
</svg>
